<svg height="512pt" viewBox="0 0 512 512.001" width="512pt" xmlns="http://www.w3.org/2000/svg"><path d="m52.800781 68.785156v374.429688c0 8.523437 6.910157 15.429687 15.429688 15.429687h375.539062c8.519531 0 15.429688-6.90625 15.429688-15.429687 0-6.914063 0-366.417969 0-374.429688 0-8.523437-6.90625-15.429687-15.429688-15.429687-21.28125 0-362.167969 0-375.539062 0-8.519531 0-15.429688 6.90625-15.429688 15.429687zm375.539063 15.429688v41.128906h-191.804688l-10.539062-41.128906zm-344.679688 0h110.480469l15.472656 60.390625c1.75 6.824219 7.902344 11.601562 14.949219 11.601562h203.777344v271.578125h-344.679688zm0 0"/><path d="m370.789062 298.285156h-8.613281c-20.550781 0-37.273437 16.71875-37.273437 37.273438v40.929687c0 20.550781 16.722656 37.273438 37.273437 37.273438h8.613281c20.554688 0 37.277344-16.722657 37.277344-37.273438v-40.929687c0-20.554688-16.722656-37.273438-37.277344-37.273438zm6.414063 78.203125c0 3.535157-2.875 6.414063-6.414063 6.414063h-8.613281c-3.535156 0-6.414062-2.878906-6.414062-6.414063v-40.929687c0-3.535156 2.878906-6.414063 6.414062-6.414063h8.613281c3.539063 0 6.414063 2.878907 6.414063 6.414063zm0 0"/><path d="m351.054688 218.859375v46.4375c0 8.523437 6.90625 15.433594 15.429687 15.433594 8.519531 0 15.429687-6.910157 15.429687-15.433594v-73.007813c0-11.835937-12.808593-19.261718-23.078124-13.402343l-24.210938 13.816406c-7.402344 4.222656-9.976562 13.644531-5.75 21.046875 3.734375 6.550781 12.421875 10.671875 22.179688 5.109375zm0 0"/><path d="m155.632812 298.285156h-8.613281c-20.554687 0-37.273437 16.71875-37.273437 37.273438v40.929687c0 20.550781 16.71875 37.273438 37.273437 37.273438h8.613281c20.550782 0 37.273438-16.722657 37.273438-37.273438v-40.929687c0-20.554688-16.722656-37.273438-37.273438-37.273438zm6.414063 78.203125c0 3.535157-2.878906 6.414063-6.414063 6.414063h-8.613281c-3.539062 0-6.414062-2.878906-6.414062-6.414063v-40.929687c0-3.535156 2.875-6.414063 6.414062-6.414063h8.613281c3.535157 0 6.414063 2.878907 6.414063 6.414063zm0 0"/><path d="m151.324219 280.726562c8.523437 0 15.429687-6.90625 15.429687-15.429687v-73.011719c0-11.832031-12.808594-19.257812-23.074218-13.398437l-24.210938 13.816406c-7.402344 4.222656-9.980469 13.644531-5.757812 21.046875 4.226562 7.402344 13.648437 9.976562 21.050781 5.753906l1.132812-.644531v46.4375c0 8.523437 6.910157 15.429687 15.429688 15.429687zm0 0"/><path d="m250.394531 300.84375-24.210937 16.011719c-7.109375 4.703125-9.058594 14.273437-4.359375 21.382812 4.699219 7.105469 14.273437 9.054688 21.382812 4.359375l.265625-.179687v55.914062c0 8.519531 6.910156 15.429688 15.433594 15.429688 8.519531 0 15.429688-6.910157 15.429688-15.429688v-84.617187c0-12.289063-13.707032-19.640625-23.941407-12.871094zm0 0"/><path d="m265.214844 176.855469h-12.621094c-19.449219 0-35.269531 15.824219-35.269531 35.273437v33.328125c0 19.449219 15.820312 35.269531 35.269531 35.269531h12.621094c19.449218 0 35.269531-15.820312 35.269531-35.269531v-33.328125c0-19.449218-15.820313-35.273437-35.269531-35.273437zm4.410156 68.601562c0 2.429688-1.980469 4.410157-4.414062 4.410157h-12.617188c-2.433594 0-4.410156-1.980469-4.410156-4.410157v-33.328125c0-2.433594 1.976562-4.414062 4.410156-4.414062h12.617188c2.433593 0 4.414062 1.980468 4.414062 4.414062zm0 0"/><path d="m496.570312 0h-58.941406c-8.523437 0-15.433594 6.90625-15.433594 15.429688 0 8.523437 6.910157 15.429687 15.433594 15.429687h43.511719v43.515625c0 8.519531 6.910156 15.429688 15.429687 15.429688 8.523438 0 15.429688-6.910157 15.429688-15.429688v-58.945312c0-8.523438-6.910156-15.429688-15.429688-15.429688zm0 0"/><path d="m74.375 481.140625h-43.515625v-43.515625c0-8.519531-6.90625-15.429688-15.429687-15.429688-8.519532 0-15.429688 6.910157-15.429688 15.429688v58.945312c0 8.523438 6.910156 15.429688 15.429688 15.429688h58.945312c8.519531 0 15.429688-6.90625 15.429688-15.429688 0-8.523437-6.910157-15.429687-15.429688-15.429687zm0 0"/><path d="m496.570312 422.195312c-8.519531 0-15.429687 6.910157-15.429687 15.429688v43.515625h-43.515625c-8.519531 0-15.429688 6.90625-15.429688 15.429687 0 8.523438 6.910157 15.429688 15.429688 15.429688h58.945312c8.519532 0 15.429688-6.90625 15.429688-15.429688v-58.941406c0-8.523437-6.910156-15.433594-15.429688-15.433594zm0 0"/><path d="m15.429688 89.804688c8.523437 0 15.429687-6.910157 15.429687-15.429688v-43.515625h43.515625c8.519531 0 15.429688-6.90625 15.429688-15.429687 0-8.519532-6.910157-15.429688-15.429688-15.429688h-58.945312c-8.519532 0-15.429688 6.90625-15.429688 15.429688v58.945312c0 8.519531 6.910156 15.429688 15.429688 15.429688zm0 0"/><path d="m127.113281 137.449219h31.039063c8.523437 0 15.433594-6.910157 15.433594-15.429688 0-8.523437-6.910157-15.433593-15.433594-15.433593h-31.039063c-8.519531 0-15.429687 6.910156-15.429687 15.433593 0 8.519531 6.910156 15.429688 15.429687 15.429688zm0 0"/></svg>